<mxfile host="app.diagrams.net" agent="Mozilla/5.0 (X11; Linux x86_64) AppleWebKit/537.36 (KHTML, like Gecko) Chrome/128.0.0.0 Safari/537.36" version="24.7.15">
  <diagram name="Page-1" id="nnu4cYgV2bwLVCHnIYM7">
    <mxGraphModel dx="437" dy="489" grid="1" gridSize="10" guides="1" tooltips="1" connect="1" arrows="1" fold="1" page="1" pageScale="1" pageWidth="827" pageHeight="1169" math="0" shadow="0">
      <root>
        <mxCell id="0" />
        <mxCell id="1" parent="0" />
        <mxCell id="D8QzD35NFZ-zwC_iLrEg-1" value="`" style="rounded=0;whiteSpace=wrap;html=1;" vertex="1" parent="1">
          <mxGeometry x="30" y="30" width="770" height="450" as="geometry" />
        </mxCell>
        <mxCell id="D8QzD35NFZ-zwC_iLrEg-2" value="" style="rounded=0;whiteSpace=wrap;html=1;" vertex="1" parent="1">
          <mxGeometry x="30" y="30" width="770" height="60" as="geometry" />
        </mxCell>
        <mxCell id="D8QzD35NFZ-zwC_iLrEg-3" value="" style="rounded=0;whiteSpace=wrap;html=1;rotation=90;" vertex="1" parent="1">
          <mxGeometry x="-20" y="140" width="390" height="290" as="geometry" />
        </mxCell>
        <mxCell id="D8QzD35NFZ-zwC_iLrEg-4" value="" style="rounded=0;whiteSpace=wrap;html=1;" vertex="1" parent="1">
          <mxGeometry x="375" y="240" width="370" height="45" as="geometry" />
        </mxCell>
        <mxCell id="D8QzD35NFZ-zwC_iLrEg-5" value="Add" style="rounded=1;whiteSpace=wrap;html=1;" vertex="1" parent="1">
          <mxGeometry x="500" y="320" width="130" height="40" as="geometry" />
        </mxCell>
        <mxCell id="D8QzD35NFZ-zwC_iLrEg-6" value="" style="ellipse;whiteSpace=wrap;html=1;aspect=fixed;" vertex="1" parent="1">
          <mxGeometry x="730" y="40" width="40" height="40" as="geometry" />
        </mxCell>
        <mxCell id="D8QzD35NFZ-zwC_iLrEg-7" value="&lt;b&gt;Todo App&lt;/b&gt;" style="text;html=1;align=center;verticalAlign=middle;whiteSpace=wrap;rounded=0;" vertex="1" parent="1">
          <mxGeometry x="40" y="45" width="60" height="30" as="geometry" />
        </mxCell>
        <mxCell id="D8QzD35NFZ-zwC_iLrEg-9" value="&lt;h1 style=&quot;margin-top: 0px;&quot;&gt;Add Your Task&lt;/h1&gt;" style="text;html=1;whiteSpace=wrap;overflow=hidden;rounded=0;" vertex="1" parent="1">
          <mxGeometry x="470" y="140" width="180" height="50" as="geometry" />
        </mxCell>
        <mxCell id="D8QzD35NFZ-zwC_iLrEg-11" value="All" style="rounded=1;whiteSpace=wrap;html=1;" vertex="1" parent="1">
          <mxGeometry x="50" y="110" width="70" height="30" as="geometry" />
        </mxCell>
        <mxCell id="D8QzD35NFZ-zwC_iLrEg-12" value="Completed+" style="rounded=1;whiteSpace=wrap;html=1;" vertex="1" parent="1">
          <mxGeometry x="230" y="110" width="70" height="30" as="geometry" />
        </mxCell>
        <mxCell id="D8QzD35NFZ-zwC_iLrEg-13" value="Pending" style="rounded=1;whiteSpace=wrap;html=1;" vertex="1" parent="1">
          <mxGeometry x="140" y="110" width="70" height="30" as="geometry" />
        </mxCell>
        <mxCell id="D8QzD35NFZ-zwC_iLrEg-15" value="" style="endArrow=none;html=1;rounded=0;entryX=0.179;entryY=0.01;entryDx=0;entryDy=0;entryPerimeter=0;" edge="1" parent="1" target="D8QzD35NFZ-zwC_iLrEg-3">
          <mxGeometry width="50" height="50" relative="1" as="geometry">
            <mxPoint x="30" y="160" as="sourcePoint" />
            <mxPoint x="250" y="164" as="targetPoint" />
            <Array as="points">
              <mxPoint x="230" y="160" />
            </Array>
          </mxGeometry>
        </mxCell>
        <mxCell id="D8QzD35NFZ-zwC_iLrEg-20" value="" style="group" vertex="1" connectable="0" parent="1">
          <mxGeometry x="50" y="230" width="250" height="40" as="geometry" />
        </mxCell>
        <mxCell id="D8QzD35NFZ-zwC_iLrEg-10" value="" style="rounded=0;whiteSpace=wrap;html=1;" vertex="1" parent="D8QzD35NFZ-zwC_iLrEg-20">
          <mxGeometry width="250" height="40" as="geometry" />
        </mxCell>
        <mxCell id="D8QzD35NFZ-zwC_iLrEg-17" value="" style="rounded=1;whiteSpace=wrap;html=1;arcSize=0;" vertex="1" parent="D8QzD35NFZ-zwC_iLrEg-20">
          <mxGeometry x="140" y="10" width="20" height="20" as="geometry" />
        </mxCell>
        <mxCell id="D8QzD35NFZ-zwC_iLrEg-18" value="edit" style="rounded=1;whiteSpace=wrap;html=1;arcSize=0;" vertex="1" parent="D8QzD35NFZ-zwC_iLrEg-20">
          <mxGeometry x="170" y="5" width="30" height="30" as="geometry" />
        </mxCell>
        <mxCell id="D8QzD35NFZ-zwC_iLrEg-19" value="&lt;font style=&quot;font-size: 9px;&quot;&gt;delete&lt;/font&gt;" style="rounded=1;whiteSpace=wrap;html=1;arcSize=0;" vertex="1" parent="D8QzD35NFZ-zwC_iLrEg-20">
          <mxGeometry x="210" y="5" width="30" height="30" as="geometry" />
        </mxCell>
        <mxCell id="D8QzD35NFZ-zwC_iLrEg-21" value="" style="group" vertex="1" connectable="0" parent="1">
          <mxGeometry x="50" y="330" width="250" height="40" as="geometry" />
        </mxCell>
        <mxCell id="D8QzD35NFZ-zwC_iLrEg-22" value="" style="rounded=0;whiteSpace=wrap;html=1;" vertex="1" parent="D8QzD35NFZ-zwC_iLrEg-21">
          <mxGeometry width="250" height="40" as="geometry" />
        </mxCell>
        <mxCell id="D8QzD35NFZ-zwC_iLrEg-23" value="" style="rounded=1;whiteSpace=wrap;html=1;arcSize=0;" vertex="1" parent="D8QzD35NFZ-zwC_iLrEg-21">
          <mxGeometry x="140" y="10" width="20" height="20" as="geometry" />
        </mxCell>
        <mxCell id="D8QzD35NFZ-zwC_iLrEg-24" value="edit" style="rounded=1;whiteSpace=wrap;html=1;arcSize=0;" vertex="1" parent="D8QzD35NFZ-zwC_iLrEg-21">
          <mxGeometry x="170" y="5" width="30" height="30" as="geometry" />
        </mxCell>
        <mxCell id="D8QzD35NFZ-zwC_iLrEg-25" value="&lt;font style=&quot;font-size: 9px;&quot;&gt;delete&lt;/font&gt;" style="rounded=1;whiteSpace=wrap;html=1;arcSize=0;" vertex="1" parent="D8QzD35NFZ-zwC_iLrEg-21">
          <mxGeometry x="210" y="5" width="30" height="30" as="geometry" />
        </mxCell>
        <mxCell id="D8QzD35NFZ-zwC_iLrEg-26" value="" style="group" vertex="1" connectable="0" parent="1">
          <mxGeometry x="50" y="380" width="250" height="40" as="geometry" />
        </mxCell>
        <mxCell id="D8QzD35NFZ-zwC_iLrEg-27" value="" style="rounded=0;whiteSpace=wrap;html=1;" vertex="1" parent="D8QzD35NFZ-zwC_iLrEg-26">
          <mxGeometry width="250" height="40" as="geometry" />
        </mxCell>
        <mxCell id="D8QzD35NFZ-zwC_iLrEg-28" value="" style="rounded=1;whiteSpace=wrap;html=1;arcSize=0;" vertex="1" parent="D8QzD35NFZ-zwC_iLrEg-26">
          <mxGeometry x="140" y="10" width="20" height="20" as="geometry" />
        </mxCell>
        <mxCell id="D8QzD35NFZ-zwC_iLrEg-29" value="edit" style="rounded=1;whiteSpace=wrap;html=1;arcSize=0;" vertex="1" parent="D8QzD35NFZ-zwC_iLrEg-26">
          <mxGeometry x="170" y="5" width="30" height="30" as="geometry" />
        </mxCell>
        <mxCell id="D8QzD35NFZ-zwC_iLrEg-30" value="&lt;font style=&quot;font-size: 9px;&quot;&gt;delete&lt;/font&gt;" style="rounded=1;whiteSpace=wrap;html=1;arcSize=0;" vertex="1" parent="D8QzD35NFZ-zwC_iLrEg-26">
          <mxGeometry x="210" y="5" width="30" height="30" as="geometry" />
        </mxCell>
        <mxCell id="D8QzD35NFZ-zwC_iLrEg-31" value="" style="group" vertex="1" connectable="0" parent="1">
          <mxGeometry x="50" y="430" width="250" height="40" as="geometry" />
        </mxCell>
        <mxCell id="D8QzD35NFZ-zwC_iLrEg-32" value="" style="rounded=0;whiteSpace=wrap;html=1;" vertex="1" parent="D8QzD35NFZ-zwC_iLrEg-31">
          <mxGeometry width="250" height="40" as="geometry" />
        </mxCell>
        <mxCell id="D8QzD35NFZ-zwC_iLrEg-33" value="" style="rounded=1;whiteSpace=wrap;html=1;arcSize=0;" vertex="1" parent="D8QzD35NFZ-zwC_iLrEg-31">
          <mxGeometry x="140" y="10" width="20" height="20" as="geometry" />
        </mxCell>
        <mxCell id="D8QzD35NFZ-zwC_iLrEg-34" value="edit" style="rounded=1;whiteSpace=wrap;html=1;arcSize=0;" vertex="1" parent="D8QzD35NFZ-zwC_iLrEg-31">
          <mxGeometry x="170" y="5" width="30" height="30" as="geometry" />
        </mxCell>
        <mxCell id="D8QzD35NFZ-zwC_iLrEg-35" value="&lt;font style=&quot;font-size: 9px;&quot;&gt;delete&lt;/font&gt;" style="rounded=1;whiteSpace=wrap;html=1;arcSize=0;" vertex="1" parent="D8QzD35NFZ-zwC_iLrEg-31">
          <mxGeometry x="210" y="5" width="30" height="30" as="geometry" />
        </mxCell>
        <mxCell id="D8QzD35NFZ-zwC_iLrEg-36" value="" style="group" vertex="1" connectable="0" parent="1">
          <mxGeometry x="50" y="280" width="250" height="40" as="geometry" />
        </mxCell>
        <mxCell id="D8QzD35NFZ-zwC_iLrEg-37" value="" style="rounded=0;whiteSpace=wrap;html=1;" vertex="1" parent="D8QzD35NFZ-zwC_iLrEg-36">
          <mxGeometry width="250" height="40" as="geometry" />
        </mxCell>
        <mxCell id="D8QzD35NFZ-zwC_iLrEg-38" value="" style="rounded=1;whiteSpace=wrap;html=1;arcSize=0;" vertex="1" parent="D8QzD35NFZ-zwC_iLrEg-36">
          <mxGeometry x="140" y="10" width="20" height="20" as="geometry" />
        </mxCell>
        <mxCell id="D8QzD35NFZ-zwC_iLrEg-39" value="edit" style="rounded=1;whiteSpace=wrap;html=1;arcSize=0;" vertex="1" parent="D8QzD35NFZ-zwC_iLrEg-36">
          <mxGeometry x="170" y="5" width="30" height="30" as="geometry" />
        </mxCell>
        <mxCell id="D8QzD35NFZ-zwC_iLrEg-40" value="&lt;font style=&quot;font-size: 9px;&quot;&gt;delete&lt;/font&gt;" style="rounded=1;whiteSpace=wrap;html=1;arcSize=0;" vertex="1" parent="D8QzD35NFZ-zwC_iLrEg-36">
          <mxGeometry x="210" y="5" width="30" height="30" as="geometry" />
        </mxCell>
        <mxCell id="D8QzD35NFZ-zwC_iLrEg-41" value="" style="group" vertex="1" connectable="0" parent="1">
          <mxGeometry x="50" y="180" width="250" height="40" as="geometry" />
        </mxCell>
        <mxCell id="D8QzD35NFZ-zwC_iLrEg-42" value="" style="rounded=0;whiteSpace=wrap;html=1;" vertex="1" parent="D8QzD35NFZ-zwC_iLrEg-41">
          <mxGeometry width="250" height="40" as="geometry" />
        </mxCell>
        <mxCell id="D8QzD35NFZ-zwC_iLrEg-43" value="" style="rounded=1;whiteSpace=wrap;html=1;arcSize=0;" vertex="1" parent="D8QzD35NFZ-zwC_iLrEg-41">
          <mxGeometry x="140" y="10" width="20" height="20" as="geometry" />
        </mxCell>
        <mxCell id="D8QzD35NFZ-zwC_iLrEg-44" value="edit" style="rounded=1;whiteSpace=wrap;html=1;arcSize=0;" vertex="1" parent="D8QzD35NFZ-zwC_iLrEg-41">
          <mxGeometry x="170" y="5" width="30" height="30" as="geometry" />
        </mxCell>
        <mxCell id="D8QzD35NFZ-zwC_iLrEg-45" value="&lt;font style=&quot;font-size: 9px;&quot;&gt;delete&lt;/font&gt;" style="rounded=1;whiteSpace=wrap;html=1;arcSize=0;" vertex="1" parent="D8QzD35NFZ-zwC_iLrEg-41">
          <mxGeometry x="210" y="5" width="30" height="30" as="geometry" />
        </mxCell>
        <mxCell id="D8QzD35NFZ-zwC_iLrEg-49" value="" style="rounded=0;whiteSpace=wrap;html=1;rotation=90;" vertex="1" parent="1">
          <mxGeometry x="177.5" y="767.5" width="475" height="260" as="geometry" />
        </mxCell>
        <mxCell id="D8QzD35NFZ-zwC_iLrEg-50" value="" style="rounded=0;whiteSpace=wrap;html=1;" vertex="1" parent="1">
          <mxGeometry x="285" y="660" width="260" height="60" as="geometry" />
        </mxCell>
        <mxCell id="D8QzD35NFZ-zwC_iLrEg-51" value="All" style="rounded=1;whiteSpace=wrap;html=1;" vertex="1" parent="1">
          <mxGeometry x="290" y="737.5" width="70" height="30" as="geometry" />
        </mxCell>
        <mxCell id="D8QzD35NFZ-zwC_iLrEg-52" value="Completed+" style="rounded=1;whiteSpace=wrap;html=1;" vertex="1" parent="1">
          <mxGeometry x="470" y="737.5" width="70" height="30" as="geometry" />
        </mxCell>
        <mxCell id="D8QzD35NFZ-zwC_iLrEg-53" value="Pending" style="rounded=1;whiteSpace=wrap;html=1;" vertex="1" parent="1">
          <mxGeometry x="380" y="737.5" width="70" height="30" as="geometry" />
        </mxCell>
        <mxCell id="D8QzD35NFZ-zwC_iLrEg-54" value="" style="group" vertex="1" connectable="0" parent="1">
          <mxGeometry x="290" y="790" width="250" height="40" as="geometry" />
        </mxCell>
        <mxCell id="D8QzD35NFZ-zwC_iLrEg-55" value="" style="rounded=0;whiteSpace=wrap;html=1;" vertex="1" parent="D8QzD35NFZ-zwC_iLrEg-54">
          <mxGeometry width="250" height="40" as="geometry" />
        </mxCell>
        <mxCell id="D8QzD35NFZ-zwC_iLrEg-56" value="" style="rounded=1;whiteSpace=wrap;html=1;arcSize=0;" vertex="1" parent="D8QzD35NFZ-zwC_iLrEg-54">
          <mxGeometry x="140" y="10" width="20" height="20" as="geometry" />
        </mxCell>
        <mxCell id="D8QzD35NFZ-zwC_iLrEg-57" value="edit" style="rounded=1;whiteSpace=wrap;html=1;arcSize=0;" vertex="1" parent="D8QzD35NFZ-zwC_iLrEg-54">
          <mxGeometry x="170" y="5" width="30" height="30" as="geometry" />
        </mxCell>
        <mxCell id="D8QzD35NFZ-zwC_iLrEg-58" value="&lt;font style=&quot;font-size: 9px;&quot;&gt;delete&lt;/font&gt;" style="rounded=1;whiteSpace=wrap;html=1;arcSize=0;" vertex="1" parent="D8QzD35NFZ-zwC_iLrEg-54">
          <mxGeometry x="210" y="5" width="30" height="30" as="geometry" />
        </mxCell>
        <mxCell id="D8QzD35NFZ-zwC_iLrEg-59" value="" style="group" vertex="1" connectable="0" parent="1">
          <mxGeometry x="290" y="940" width="250" height="40" as="geometry" />
        </mxCell>
        <mxCell id="D8QzD35NFZ-zwC_iLrEg-60" value="" style="rounded=0;whiteSpace=wrap;html=1;" vertex="1" parent="D8QzD35NFZ-zwC_iLrEg-59">
          <mxGeometry width="250" height="40" as="geometry" />
        </mxCell>
        <mxCell id="D8QzD35NFZ-zwC_iLrEg-61" value="" style="rounded=1;whiteSpace=wrap;html=1;arcSize=0;" vertex="1" parent="D8QzD35NFZ-zwC_iLrEg-59">
          <mxGeometry x="140" y="10" width="20" height="20" as="geometry" />
        </mxCell>
        <mxCell id="D8QzD35NFZ-zwC_iLrEg-62" value="edit" style="rounded=1;whiteSpace=wrap;html=1;arcSize=0;" vertex="1" parent="D8QzD35NFZ-zwC_iLrEg-59">
          <mxGeometry x="170" y="5" width="30" height="30" as="geometry" />
        </mxCell>
        <mxCell id="D8QzD35NFZ-zwC_iLrEg-63" value="&lt;font style=&quot;font-size: 9px;&quot;&gt;delete&lt;/font&gt;" style="rounded=1;whiteSpace=wrap;html=1;arcSize=0;" vertex="1" parent="D8QzD35NFZ-zwC_iLrEg-59">
          <mxGeometry x="210" y="5" width="30" height="30" as="geometry" />
        </mxCell>
        <mxCell id="D8QzD35NFZ-zwC_iLrEg-64" value="" style="group" vertex="1" connectable="0" parent="1">
          <mxGeometry x="290" y="890" width="250" height="40" as="geometry" />
        </mxCell>
        <mxCell id="D8QzD35NFZ-zwC_iLrEg-65" value="" style="rounded=0;whiteSpace=wrap;html=1;" vertex="1" parent="D8QzD35NFZ-zwC_iLrEg-64">
          <mxGeometry width="250" height="40" as="geometry" />
        </mxCell>
        <mxCell id="D8QzD35NFZ-zwC_iLrEg-66" value="" style="rounded=1;whiteSpace=wrap;html=1;arcSize=0;" vertex="1" parent="D8QzD35NFZ-zwC_iLrEg-64">
          <mxGeometry x="140" y="10" width="20" height="20" as="geometry" />
        </mxCell>
        <mxCell id="D8QzD35NFZ-zwC_iLrEg-67" value="edit" style="rounded=1;whiteSpace=wrap;html=1;arcSize=0;" vertex="1" parent="D8QzD35NFZ-zwC_iLrEg-64">
          <mxGeometry x="170" y="5" width="30" height="30" as="geometry" />
        </mxCell>
        <mxCell id="D8QzD35NFZ-zwC_iLrEg-68" value="&lt;font style=&quot;font-size: 9px;&quot;&gt;delete&lt;/font&gt;" style="rounded=1;whiteSpace=wrap;html=1;arcSize=0;" vertex="1" parent="D8QzD35NFZ-zwC_iLrEg-64">
          <mxGeometry x="210" y="5" width="30" height="30" as="geometry" />
        </mxCell>
        <mxCell id="D8QzD35NFZ-zwC_iLrEg-69" value="" style="group" vertex="1" connectable="0" parent="1">
          <mxGeometry x="290" y="840" width="250" height="40" as="geometry" />
        </mxCell>
        <mxCell id="D8QzD35NFZ-zwC_iLrEg-70" value="" style="rounded=0;whiteSpace=wrap;html=1;" vertex="1" parent="D8QzD35NFZ-zwC_iLrEg-69">
          <mxGeometry width="250" height="40" as="geometry" />
        </mxCell>
        <mxCell id="D8QzD35NFZ-zwC_iLrEg-71" value="" style="rounded=1;whiteSpace=wrap;html=1;arcSize=0;" vertex="1" parent="D8QzD35NFZ-zwC_iLrEg-69">
          <mxGeometry x="140" y="10" width="20" height="20" as="geometry" />
        </mxCell>
        <mxCell id="D8QzD35NFZ-zwC_iLrEg-72" value="edit" style="rounded=1;whiteSpace=wrap;html=1;arcSize=0;" vertex="1" parent="D8QzD35NFZ-zwC_iLrEg-69">
          <mxGeometry x="170" y="5" width="30" height="30" as="geometry" />
        </mxCell>
        <mxCell id="D8QzD35NFZ-zwC_iLrEg-73" value="&lt;font style=&quot;font-size: 9px;&quot;&gt;delete&lt;/font&gt;" style="rounded=1;whiteSpace=wrap;html=1;arcSize=0;" vertex="1" parent="D8QzD35NFZ-zwC_iLrEg-69">
          <mxGeometry x="210" y="5" width="30" height="30" as="geometry" />
        </mxCell>
        <mxCell id="D8QzD35NFZ-zwC_iLrEg-79" value="" style="group" vertex="1" connectable="0" parent="1">
          <mxGeometry x="289" y="990" width="250" height="40" as="geometry" />
        </mxCell>
        <mxCell id="D8QzD35NFZ-zwC_iLrEg-80" value="" style="rounded=0;whiteSpace=wrap;html=1;" vertex="1" parent="D8QzD35NFZ-zwC_iLrEg-79">
          <mxGeometry width="250" height="40" as="geometry" />
        </mxCell>
        <mxCell id="D8QzD35NFZ-zwC_iLrEg-81" value="" style="rounded=1;whiteSpace=wrap;html=1;arcSize=0;" vertex="1" parent="D8QzD35NFZ-zwC_iLrEg-79">
          <mxGeometry x="140" y="10" width="20" height="20" as="geometry" />
        </mxCell>
        <mxCell id="D8QzD35NFZ-zwC_iLrEg-82" value="edit" style="rounded=1;whiteSpace=wrap;html=1;arcSize=0;" vertex="1" parent="D8QzD35NFZ-zwC_iLrEg-79">
          <mxGeometry x="170" y="5" width="30" height="30" as="geometry" />
        </mxCell>
        <mxCell id="D8QzD35NFZ-zwC_iLrEg-83" value="&lt;font style=&quot;font-size: 9px;&quot;&gt;delete&lt;/font&gt;" style="rounded=1;whiteSpace=wrap;html=1;arcSize=0;" vertex="1" parent="D8QzD35NFZ-zwC_iLrEg-79">
          <mxGeometry x="210" y="5" width="30" height="30" as="geometry" />
        </mxCell>
        <mxCell id="D8QzD35NFZ-zwC_iLrEg-85" value="" style="group" vertex="1" connectable="0" parent="1">
          <mxGeometry x="290" y="1090" width="250" height="40" as="geometry" />
        </mxCell>
        <mxCell id="D8QzD35NFZ-zwC_iLrEg-86" value="" style="rounded=0;whiteSpace=wrap;html=1;" vertex="1" parent="D8QzD35NFZ-zwC_iLrEg-85">
          <mxGeometry width="250" height="40" as="geometry" />
        </mxCell>
        <mxCell id="D8QzD35NFZ-zwC_iLrEg-87" value="" style="rounded=1;whiteSpace=wrap;html=1;arcSize=0;" vertex="1" parent="D8QzD35NFZ-zwC_iLrEg-85">
          <mxGeometry x="140" y="10" width="20" height="20" as="geometry" />
        </mxCell>
        <mxCell id="D8QzD35NFZ-zwC_iLrEg-88" value="edit" style="rounded=1;whiteSpace=wrap;html=1;arcSize=0;" vertex="1" parent="D8QzD35NFZ-zwC_iLrEg-85">
          <mxGeometry x="170" y="5" width="30" height="30" as="geometry" />
        </mxCell>
        <mxCell id="D8QzD35NFZ-zwC_iLrEg-89" value="&lt;font style=&quot;font-size: 9px;&quot;&gt;delete&lt;/font&gt;" style="rounded=1;whiteSpace=wrap;html=1;arcSize=0;" vertex="1" parent="D8QzD35NFZ-zwC_iLrEg-85">
          <mxGeometry x="210" y="5" width="30" height="30" as="geometry" />
        </mxCell>
        <mxCell id="D8QzD35NFZ-zwC_iLrEg-98" value="" style="group" vertex="1" connectable="0" parent="D8QzD35NFZ-zwC_iLrEg-85">
          <mxGeometry x="190" y="-15" width="50" height="50" as="geometry" />
        </mxCell>
        <mxCell id="D8QzD35NFZ-zwC_iLrEg-95" value="" style="ellipse;whiteSpace=wrap;html=1;aspect=fixed;strokeColor=#FF0000;fillColor=#FF6666;" vertex="1" parent="D8QzD35NFZ-zwC_iLrEg-98">
          <mxGeometry width="50" height="50" as="geometry" />
        </mxCell>
        <mxCell id="D8QzD35NFZ-zwC_iLrEg-96" value="" style="shape=cross;whiteSpace=wrap;html=1;size=0.2;" vertex="1" parent="D8QzD35NFZ-zwC_iLrEg-98">
          <mxGeometry x="10" y="10" width="30" height="30" as="geometry" />
        </mxCell>
        <mxCell id="D8QzD35NFZ-zwC_iLrEg-90" value="" style="group" vertex="1" connectable="0" parent="1">
          <mxGeometry x="289" y="1040" width="250" height="40" as="geometry" />
        </mxCell>
        <mxCell id="D8QzD35NFZ-zwC_iLrEg-91" value="" style="rounded=0;whiteSpace=wrap;html=1;" vertex="1" parent="D8QzD35NFZ-zwC_iLrEg-90">
          <mxGeometry width="250" height="40" as="geometry" />
        </mxCell>
        <mxCell id="D8QzD35NFZ-zwC_iLrEg-92" value="" style="rounded=1;whiteSpace=wrap;html=1;arcSize=0;" vertex="1" parent="D8QzD35NFZ-zwC_iLrEg-90">
          <mxGeometry x="140" y="10" width="20" height="20" as="geometry" />
        </mxCell>
        <mxCell id="D8QzD35NFZ-zwC_iLrEg-93" value="edit" style="rounded=1;whiteSpace=wrap;html=1;arcSize=0;" vertex="1" parent="D8QzD35NFZ-zwC_iLrEg-90">
          <mxGeometry x="170" y="5" width="30" height="30" as="geometry" />
        </mxCell>
        <mxCell id="D8QzD35NFZ-zwC_iLrEg-94" value="&lt;font style=&quot;font-size: 9px;&quot;&gt;delete&lt;/font&gt;" style="rounded=1;whiteSpace=wrap;html=1;arcSize=0;" vertex="1" parent="D8QzD35NFZ-zwC_iLrEg-90">
          <mxGeometry x="210" y="5" width="30" height="30" as="geometry" />
        </mxCell>
      </root>
    </mxGraphModel>
  </diagram>
</mxfile>
